<mxfile host="app.diagrams.net" modified="2022-09-30T17:42:32.030Z" agent="5.0 (Macintosh; Intel Mac OS X 10_15_7) AppleWebKit/537.36 (KHTML, like Gecko) Chrome/105.0.0.0 Safari/537.36" etag="PlYc6pmtBbAXQQGivITm" version="20.3.7" type="github">
  <diagram id="yPxyJZ8AM_hMuL3Unpa9" name="gitflow">
    <mxGraphModel dx="2703" dy="1483" grid="1" gridSize="10" guides="1" tooltips="1" connect="1" arrows="1" fold="1" page="1" pageScale="1" pageWidth="850" pageHeight="1100" math="0" shadow="0">
      <root>
        <mxCell id="0" />
        <mxCell id="1" parent="0" />
        <mxCell id="AOSNNNapLotJHbxKRXoR-208" style="edgeStyle=orthogonalEdgeStyle;rounded=0;orthogonalLoop=1;jettySize=auto;html=1;" edge="1" parent="1" source="AOSNNNapLotJHbxKRXoR-178" target="AOSNNNapLotJHbxKRXoR-205">
          <mxGeometry relative="1" as="geometry" />
        </mxCell>
        <mxCell id="AOSNNNapLotJHbxKRXoR-178" value="STARsolo output: one per sample&lt;br&gt;" style="ellipse;whiteSpace=wrap;html=1;aspect=fixed;fontSize=10;labelPosition=center;verticalLabelPosition=top;align=center;verticalAlign=bottom;fillColor=#ffe6cc;strokeColor=#d79b00;fontColor=#FFB570;" vertex="1" parent="1">
          <mxGeometry x="165" y="570" width="70" height="70" as="geometry" />
        </mxCell>
        <mxCell id="AOSNNNapLotJHbxKRXoR-215" style="edgeStyle=orthogonalEdgeStyle;rounded=0;orthogonalLoop=1;jettySize=auto;html=1;exitX=1;exitY=0.5;exitDx=0;exitDy=0;entryX=0;entryY=0.5;entryDx=0;entryDy=0;" edge="1" parent="1" source="AOSNNNapLotJHbxKRXoR-179" target="AOSNNNapLotJHbxKRXoR-214">
          <mxGeometry relative="1" as="geometry" />
        </mxCell>
        <mxCell id="AOSNNNapLotJHbxKRXoR-179" value="GE_spaces.txt" style="ellipse;whiteSpace=wrap;html=1;aspect=fixed;fontSize=10;labelPosition=center;verticalLabelPosition=top;align=center;verticalAlign=bottom;fillColor=#ffe6cc;strokeColor=#d79b00;fontColor=#FFB570;" vertex="1" parent="1">
          <mxGeometry x="425" y="595" width="20" height="20" as="geometry" />
        </mxCell>
        <mxCell id="AOSNNNapLotJHbxKRXoR-252" style="edgeStyle=orthogonalEdgeStyle;rounded=0;orthogonalLoop=1;jettySize=auto;html=1;entryX=0.5;entryY=0;entryDx=0;entryDy=0;" edge="1" parent="1" target="AOSNNNapLotJHbxKRXoR-235">
          <mxGeometry relative="1" as="geometry">
            <mxPoint x="1270" y="370" as="sourcePoint" />
          </mxGeometry>
        </mxCell>
        <mxCell id="AOSNNNapLotJHbxKRXoR-307" style="edgeStyle=orthogonalEdgeStyle;rounded=0;orthogonalLoop=1;jettySize=auto;html=1;exitX=1;exitY=0.5;exitDx=0;exitDy=0;entryX=0.065;entryY=1.023;entryDx=0;entryDy=0;entryPerimeter=0;fontColor=#9AC7BF;" edge="1" parent="1">
          <mxGeometry relative="1" as="geometry">
            <mxPoint x="442.5" y="547.5" as="sourcePoint" />
            <mxPoint x="1291.65" y="398.3800000000001" as="targetPoint" />
          </mxGeometry>
        </mxCell>
        <mxCell id="AOSNNNapLotJHbxKRXoR-181" value="adata.h5ad" style="ellipse;whiteSpace=wrap;html=1;aspect=fixed;fontSize=10;labelPosition=center;verticalLabelPosition=top;align=center;verticalAlign=bottom;fillColor=#ffe6cc;strokeColor=#d79b00;fontColor=#FFB570;" vertex="1" parent="1">
          <mxGeometry x="427.5" y="543" width="15" height="15" as="geometry" />
        </mxCell>
        <mxCell id="AOSNNNapLotJHbxKRXoR-182" value="QC.pdf&lt;br&gt;" style="ellipse;whiteSpace=wrap;html=1;aspect=fixed;fontSize=10;labelPosition=center;verticalLabelPosition=top;align=center;verticalAlign=bottom;fillColor=#ffe6cc;strokeColor=#d79b00;fontColor=#FFB570;" vertex="1" parent="1">
          <mxGeometry x="140" y="720" width="20" height="20" as="geometry" />
        </mxCell>
        <mxCell id="AOSNNNapLotJHbxKRXoR-183" value="QC_results.xlsx" style="ellipse;whiteSpace=wrap;html=1;aspect=fixed;fontSize=10;labelPosition=center;verticalLabelPosition=top;align=center;verticalAlign=bottom;fillColor=#ffe6cc;strokeColor=#d79b00;fontColor=#FFB570;" vertex="1" parent="1">
          <mxGeometry x="364" y="700" width="20" height="20" as="geometry" />
        </mxCell>
        <mxCell id="AOSNNNapLotJHbxKRXoR-201" value="original_PCA_spaces.pdf" style="ellipse;whiteSpace=wrap;html=1;aspect=fixed;fontSize=10;labelPosition=center;verticalLabelPosition=top;align=center;verticalAlign=bottom;fillColor=#ffe6cc;strokeColor=#d79b00;fontColor=#FFB570;" vertex="1" parent="1">
          <mxGeometry x="230" y="710" width="20" height="20" as="geometry" />
        </mxCell>
        <mxCell id="AOSNNNapLotJHbxKRXoR-202" value="explained_variance.pdf" style="ellipse;whiteSpace=wrap;html=1;aspect=fixed;fontSize=10;labelPosition=center;verticalLabelPosition=top;align=center;verticalAlign=bottom;fillColor=#ffe6cc;strokeColor=#d79b00;fontColor=#FFB570;" vertex="1" parent="1">
          <mxGeometry x="220" y="760" width="20" height="20" as="geometry" />
        </mxCell>
        <mxCell id="AOSNNNapLotJHbxKRXoR-213" style="edgeStyle=orthogonalEdgeStyle;rounded=0;orthogonalLoop=1;jettySize=auto;html=1;exitX=1;exitY=0.5;exitDx=0;exitDy=0;" edge="1" parent="1" source="AOSNNNapLotJHbxKRXoR-205" target="AOSNNNapLotJHbxKRXoR-179">
          <mxGeometry relative="1" as="geometry" />
        </mxCell>
        <mxCell id="AOSNNNapLotJHbxKRXoR-219" style="edgeStyle=orthogonalEdgeStyle;rounded=0;orthogonalLoop=1;jettySize=auto;html=1;exitX=0.5;exitY=0;exitDx=0;exitDy=0;entryX=0;entryY=0.5;entryDx=0;entryDy=0;" edge="1" parent="1" source="AOSNNNapLotJHbxKRXoR-205" target="AOSNNNapLotJHbxKRXoR-181">
          <mxGeometry relative="1" as="geometry" />
        </mxCell>
        <mxCell id="AOSNNNapLotJHbxKRXoR-205" value="1_pp.py" style="shape=process;whiteSpace=wrap;html=1;backgroundOutline=1;" vertex="1" parent="1">
          <mxGeometry x="270" y="575" width="120" height="60" as="geometry" />
        </mxCell>
        <mxCell id="AOSNNNapLotJHbxKRXoR-230" style="edgeStyle=orthogonalEdgeStyle;rounded=0;orthogonalLoop=1;jettySize=auto;html=1;exitX=0.5;exitY=1;exitDx=0;exitDy=0;entryX=0;entryY=0.5;entryDx=0;entryDy=0;" edge="1" parent="1" source="AOSNNNapLotJHbxKRXoR-214" target="AOSNNNapLotJHbxKRXoR-224">
          <mxGeometry relative="1" as="geometry" />
        </mxCell>
        <mxCell id="AOSNNNapLotJHbxKRXoR-231" style="edgeStyle=orthogonalEdgeStyle;rounded=0;orthogonalLoop=1;jettySize=auto;html=1;exitX=0.5;exitY=1;exitDx=0;exitDy=0;entryX=0;entryY=0.5;entryDx=0;entryDy=0;" edge="1" parent="1" source="AOSNNNapLotJHbxKRXoR-214" target="AOSNNNapLotJHbxKRXoR-225">
          <mxGeometry relative="1" as="geometry" />
        </mxCell>
        <mxCell id="AOSNNNapLotJHbxKRXoR-232" style="edgeStyle=orthogonalEdgeStyle;rounded=0;orthogonalLoop=1;jettySize=auto;html=1;exitX=0.5;exitY=0;exitDx=0;exitDy=0;entryX=0;entryY=0.5;entryDx=0;entryDy=0;" edge="1" parent="1" source="AOSNNNapLotJHbxKRXoR-214" target="AOSNNNapLotJHbxKRXoR-227">
          <mxGeometry relative="1" as="geometry" />
        </mxCell>
        <mxCell id="AOSNNNapLotJHbxKRXoR-233" style="edgeStyle=orthogonalEdgeStyle;rounded=0;orthogonalLoop=1;jettySize=auto;html=1;exitX=0.5;exitY=0;exitDx=0;exitDy=0;entryX=0;entryY=0.5;entryDx=0;entryDy=0;" edge="1" parent="1" source="AOSNNNapLotJHbxKRXoR-214" target="AOSNNNapLotJHbxKRXoR-226">
          <mxGeometry relative="1" as="geometry" />
        </mxCell>
        <mxCell id="AOSNNNapLotJHbxKRXoR-236" style="edgeStyle=orthogonalEdgeStyle;rounded=0;orthogonalLoop=1;jettySize=auto;html=1;entryX=0;entryY=0.5;entryDx=0;entryDy=0;" edge="1" parent="1" source="AOSNNNapLotJHbxKRXoR-214" target="AOSNNNapLotJHbxKRXoR-235">
          <mxGeometry relative="1" as="geometry" />
        </mxCell>
        <mxCell id="AOSNNNapLotJHbxKRXoR-214" value="2_kBET.py" style="shape=process;whiteSpace=wrap;html=1;backgroundOutline=1;" vertex="1" parent="1">
          <mxGeometry x="470" y="575" width="120" height="60" as="geometry" />
        </mxCell>
        <mxCell id="AOSNNNapLotJHbxKRXoR-222" value="kBET_df.xlsx" style="ellipse;whiteSpace=wrap;html=1;aspect=fixed;fontSize=10;labelPosition=center;verticalLabelPosition=top;align=center;verticalAlign=bottom;fillColor=#ffe6cc;strokeColor=#d79b00;fontColor=#FFB570;" vertex="1" parent="1">
          <mxGeometry x="471" y="700" width="20" height="20" as="geometry" />
        </mxCell>
        <mxCell id="AOSNNNapLotJHbxKRXoR-239" style="edgeStyle=orthogonalEdgeStyle;rounded=0;orthogonalLoop=1;jettySize=auto;html=1;exitX=1;exitY=0.5;exitDx=0;exitDy=0;entryX=0.5;entryY=1;entryDx=0;entryDy=0;startArrow=none;" edge="1" parent="1" source="AOSNNNapLotJHbxKRXoR-274" target="AOSNNNapLotJHbxKRXoR-235">
          <mxGeometry relative="1" as="geometry" />
        </mxCell>
        <mxCell id="AOSNNNapLotJHbxKRXoR-224" value="scVI.py" style="shape=process;whiteSpace=wrap;html=1;backgroundOutline=1;" vertex="1" parent="1">
          <mxGeometry x="640" y="660" width="120" height="60" as="geometry" />
        </mxCell>
        <mxCell id="AOSNNNapLotJHbxKRXoR-242" style="edgeStyle=orthogonalEdgeStyle;rounded=0;orthogonalLoop=1;jettySize=auto;html=1;exitX=1;exitY=0.5;exitDx=0;exitDy=0;entryX=0.5;entryY=1;entryDx=0;entryDy=0;startArrow=none;" edge="1" parent="1" source="AOSNNNapLotJHbxKRXoR-276" target="AOSNNNapLotJHbxKRXoR-235">
          <mxGeometry relative="1" as="geometry" />
        </mxCell>
        <mxCell id="AOSNNNapLotJHbxKRXoR-225" value="BBKNN.py" style="shape=process;whiteSpace=wrap;html=1;backgroundOutline=1;" vertex="1" parent="1">
          <mxGeometry x="640" y="740" width="120" height="60" as="geometry" />
        </mxCell>
        <mxCell id="AOSNNNapLotJHbxKRXoR-226" value="Harmony.py" style="shape=process;whiteSpace=wrap;html=1;backgroundOutline=1;" vertex="1" parent="1">
          <mxGeometry x="640" y="376" width="120" height="60" as="geometry" />
        </mxCell>
        <mxCell id="AOSNNNapLotJHbxKRXoR-237" style="edgeStyle=orthogonalEdgeStyle;rounded=0;orthogonalLoop=1;jettySize=auto;html=1;startArrow=none;" edge="1" parent="1" source="AOSNNNapLotJHbxKRXoR-265" target="AOSNNNapLotJHbxKRXoR-235">
          <mxGeometry relative="1" as="geometry" />
        </mxCell>
        <mxCell id="AOSNNNapLotJHbxKRXoR-227" value="Scanorama.py" style="shape=process;whiteSpace=wrap;html=1;backgroundOutline=1;" vertex="1" parent="1">
          <mxGeometry x="640" y="456" width="120" height="60" as="geometry" />
        </mxCell>
        <mxCell id="AOSNNNapLotJHbxKRXoR-253" style="edgeStyle=orthogonalEdgeStyle;rounded=0;orthogonalLoop=1;jettySize=auto;html=1;entryX=0;entryY=0.5;entryDx=0;entryDy=0;" edge="1" parent="1" source="AOSNNNapLotJHbxKRXoR-235" target="AOSNNNapLotJHbxKRXoR-248">
          <mxGeometry relative="1" as="geometry" />
        </mxCell>
        <mxCell id="AOSNNNapLotJHbxKRXoR-235" value="3_integration_diagnostics.py" style="shape=process;whiteSpace=wrap;html=1;backgroundOutline=1;" vertex="1" parent="1">
          <mxGeometry x="768" y="577" width="222" height="58" as="geometry" />
        </mxCell>
        <mxCell id="AOSNNNapLotJHbxKRXoR-244" value="4_clustering.py" style="shape=process;whiteSpace=wrap;html=1;backgroundOutline=1;" vertex="1" parent="1">
          <mxGeometry x="1108" y="576" width="120" height="60" as="geometry" />
        </mxCell>
        <mxCell id="AOSNNNapLotJHbxKRXoR-313" style="edgeStyle=orthogonalEdgeStyle;rounded=0;orthogonalLoop=1;jettySize=auto;html=1;exitX=0.5;exitY=1;exitDx=0;exitDy=0;entryX=0.5;entryY=0;entryDx=0;entryDy=0;fontColor=#9AC7BF;" edge="1" parent="1" source="AOSNNNapLotJHbxKRXoR-245" target="AOSNNNapLotJHbxKRXoR-311">
          <mxGeometry relative="1" as="geometry" />
        </mxCell>
        <mxCell id="AOSNNNapLotJHbxKRXoR-245" value="5_clustering_diagnostics.py" style="shape=process;whiteSpace=wrap;html=1;backgroundOutline=1;" vertex="1" parent="1">
          <mxGeometry x="1278" y="340" width="210" height="60" as="geometry" />
        </mxCell>
        <mxCell id="AOSNNNapLotJHbxKRXoR-256" style="edgeStyle=orthogonalEdgeStyle;rounded=0;orthogonalLoop=1;jettySize=auto;html=1;entryX=0;entryY=0.5;entryDx=0;entryDy=0;" edge="1" parent="1" source="AOSNNNapLotJHbxKRXoR-248" target="AOSNNNapLotJHbxKRXoR-244">
          <mxGeometry relative="1" as="geometry" />
        </mxCell>
        <mxCell id="AOSNNNapLotJHbxKRXoR-308" style="edgeStyle=orthogonalEdgeStyle;rounded=0;orthogonalLoop=1;jettySize=auto;html=1;exitX=0.5;exitY=0;exitDx=0;exitDy=0;entryX=0;entryY=0.5;entryDx=0;entryDy=0;fontColor=#9AC7BF;" edge="1" parent="1" source="AOSNNNapLotJHbxKRXoR-248" target="AOSNNNapLotJHbxKRXoR-245">
          <mxGeometry relative="1" as="geometry" />
        </mxCell>
        <mxCell id="AOSNNNapLotJHbxKRXoR-248" value="preprocessed.h5ad" style="ellipse;whiteSpace=wrap;html=1;aspect=fixed;fontSize=10;labelPosition=center;verticalLabelPosition=top;align=center;verticalAlign=bottom;fillColor=#ffe6cc;strokeColor=#d79b00;fontColor=#FFB570;" vertex="1" parent="1">
          <mxGeometry x="1045" y="596" width="20" height="20" as="geometry" />
        </mxCell>
        <mxCell id="AOSNNNapLotJHbxKRXoR-282" style="edgeStyle=orthogonalEdgeStyle;rounded=0;orthogonalLoop=1;jettySize=auto;html=1;exitX=0.5;exitY=1;exitDx=0;exitDy=0;entryX=0.5;entryY=0;entryDx=0;entryDy=0;" edge="1" parent="1" source="AOSNNNapLotJHbxKRXoR-262" target="AOSNNNapLotJHbxKRXoR-263">
          <mxGeometry relative="1" as="geometry" />
        </mxCell>
        <mxCell id="AOSNNNapLotJHbxKRXoR-262" value="6_signatures.py" style="shape=process;whiteSpace=wrap;html=1;backgroundOutline=1;" vertex="1" parent="1">
          <mxGeometry x="1323" y="469" width="120" height="60" as="geometry" />
        </mxCell>
        <mxCell id="AOSNNNapLotJHbxKRXoR-285" style="edgeStyle=orthogonalEdgeStyle;rounded=0;orthogonalLoop=1;jettySize=auto;html=1;exitX=0.5;exitY=1;exitDx=0;exitDy=0;startArrow=none;" edge="1" parent="1" source="AOSNNNapLotJHbxKRXoR-317" target="AOSNNNapLotJHbxKRXoR-284">
          <mxGeometry relative="1" as="geometry" />
        </mxCell>
        <mxCell id="AOSNNNapLotJHbxKRXoR-263" value="7_dist_features.py" style="shape=process;whiteSpace=wrap;html=1;backgroundOutline=1;" vertex="1" parent="1">
          <mxGeometry x="1313" y="593" width="140" height="60" as="geometry" />
        </mxCell>
        <mxCell id="AOSNNNapLotJHbxKRXoR-265" value="Scanorama.txt" style="ellipse;whiteSpace=wrap;html=1;aspect=fixed;fontSize=10;labelPosition=center;verticalLabelPosition=top;align=center;verticalAlign=bottom;fillColor=#ffe6cc;strokeColor=#d79b00;fontColor=#FFB570;" vertex="1" parent="1">
          <mxGeometry x="830" y="476" width="20" height="20" as="geometry" />
        </mxCell>
        <mxCell id="AOSNNNapLotJHbxKRXoR-266" value="" style="edgeStyle=orthogonalEdgeStyle;rounded=0;orthogonalLoop=1;jettySize=auto;html=1;endArrow=none;" edge="1" parent="1" source="AOSNNNapLotJHbxKRXoR-227" target="AOSNNNapLotJHbxKRXoR-265">
          <mxGeometry relative="1" as="geometry">
            <mxPoint x="760" y="486" as="sourcePoint" />
            <mxPoint x="879" y="577" as="targetPoint" />
          </mxGeometry>
        </mxCell>
        <mxCell id="AOSNNNapLotJHbxKRXoR-271" style="edgeStyle=orthogonalEdgeStyle;rounded=0;orthogonalLoop=1;jettySize=auto;html=1;exitX=0.5;exitY=1;exitDx=0;exitDy=0;entryX=0.5;entryY=0;entryDx=0;entryDy=0;" edge="1" parent="1" source="AOSNNNapLotJHbxKRXoR-267" target="AOSNNNapLotJHbxKRXoR-235">
          <mxGeometry relative="1" as="geometry" />
        </mxCell>
        <mxCell id="AOSNNNapLotJHbxKRXoR-267" value="Harmony.txt" style="ellipse;whiteSpace=wrap;html=1;aspect=fixed;fontSize=10;labelPosition=center;verticalLabelPosition=top;align=center;verticalAlign=bottom;fillColor=#ffe6cc;strokeColor=#d79b00;fontColor=#FFB570;" vertex="1" parent="1">
          <mxGeometry x="869" y="430" width="20" height="20" as="geometry" />
        </mxCell>
        <mxCell id="AOSNNNapLotJHbxKRXoR-268" value="" style="edgeStyle=orthogonalEdgeStyle;rounded=0;orthogonalLoop=1;jettySize=auto;html=1;exitX=1;exitY=0.5;exitDx=0;exitDy=0;entryX=0.5;entryY=0;entryDx=0;entryDy=0;endArrow=none;" edge="1" parent="1" source="AOSNNNapLotJHbxKRXoR-226" target="AOSNNNapLotJHbxKRXoR-267">
          <mxGeometry relative="1" as="geometry">
            <mxPoint x="760" y="406" as="sourcePoint" />
            <mxPoint x="879" y="577" as="targetPoint" />
          </mxGeometry>
        </mxCell>
        <mxCell id="AOSNNNapLotJHbxKRXoR-274" value="scVI.txt" style="ellipse;whiteSpace=wrap;html=1;aspect=fixed;fontSize=10;labelPosition=center;verticalLabelPosition=top;align=center;verticalAlign=bottom;fillColor=#ffe6cc;strokeColor=#d79b00;fontColor=#FFB570;" vertex="1" parent="1">
          <mxGeometry x="820" y="680" width="20" height="20" as="geometry" />
        </mxCell>
        <mxCell id="AOSNNNapLotJHbxKRXoR-275" value="" style="edgeStyle=orthogonalEdgeStyle;rounded=0;orthogonalLoop=1;jettySize=auto;html=1;exitX=1;exitY=0.5;exitDx=0;exitDy=0;entryX=0.5;entryY=1;entryDx=0;entryDy=0;endArrow=none;" edge="1" parent="1" source="AOSNNNapLotJHbxKRXoR-224" target="AOSNNNapLotJHbxKRXoR-274">
          <mxGeometry relative="1" as="geometry">
            <mxPoint x="760" y="690" as="sourcePoint" />
            <mxPoint x="879" y="635" as="targetPoint" />
          </mxGeometry>
        </mxCell>
        <mxCell id="AOSNNNapLotJHbxKRXoR-276" value="BBKNN.txt" style="ellipse;whiteSpace=wrap;html=1;aspect=fixed;fontSize=10;labelPosition=center;verticalLabelPosition=top;align=center;verticalAlign=bottom;fillColor=#ffe6cc;strokeColor=#d79b00;fontColor=#FFB570;" vertex="1" parent="1">
          <mxGeometry x="810" y="760" width="20" height="20" as="geometry" />
        </mxCell>
        <mxCell id="AOSNNNapLotJHbxKRXoR-277" value="" style="edgeStyle=orthogonalEdgeStyle;rounded=0;orthogonalLoop=1;jettySize=auto;html=1;exitX=1;exitY=0.5;exitDx=0;exitDy=0;entryX=0.5;entryY=1;entryDx=0;entryDy=0;endArrow=none;" edge="1" parent="1" source="AOSNNNapLotJHbxKRXoR-225" target="AOSNNNapLotJHbxKRXoR-276">
          <mxGeometry relative="1" as="geometry">
            <mxPoint x="760" y="770" as="sourcePoint" />
            <mxPoint x="879" y="635" as="targetPoint" />
          </mxGeometry>
        </mxCell>
        <mxCell id="AOSNNNapLotJHbxKRXoR-284" value="Dist_features_app.py" style="shape=process;whiteSpace=wrap;html=1;backgroundOutline=1;" vertex="1" parent="1">
          <mxGeometry x="1302.5" y="730" width="161" height="60" as="geometry" />
        </mxCell>
        <mxCell id="AOSNNNapLotJHbxKRXoR-310" style="edgeStyle=orthogonalEdgeStyle;rounded=0;orthogonalLoop=1;jettySize=auto;html=1;exitX=1;exitY=0.5;exitDx=0;exitDy=0;entryX=0;entryY=0.5;entryDx=0;entryDy=0;fontColor=#9AC7BF;" edge="1" parent="1" source="AOSNNNapLotJHbxKRXoR-287" target="AOSNNNapLotJHbxKRXoR-262">
          <mxGeometry relative="1" as="geometry" />
        </mxCell>
        <mxCell id="AOSNNNapLotJHbxKRXoR-287" value="clusters_markers.txt" style="ellipse;whiteSpace=wrap;html=1;aspect=fixed;fontSize=10;labelPosition=center;verticalLabelPosition=top;align=center;verticalAlign=bottom;fillColor=#9AC7BF;strokeColor=#67AB9F;fontColor=#9AC7BF;" vertex="1" parent="1">
          <mxGeometry x="1158" y="436" width="20" height="20" as="geometry" />
        </mxCell>
        <mxCell id="AOSNNNapLotJHbxKRXoR-288" value="" style="edgeStyle=orthogonalEdgeStyle;rounded=0;orthogonalLoop=1;jettySize=auto;html=1;exitX=0.5;exitY=0;exitDx=0;exitDy=0;entryX=0;entryY=0.5;entryDx=0;entryDy=0;endArrow=none;startArrow=none;" edge="1" parent="1" source="AOSNNNapLotJHbxKRXoR-290" target="AOSNNNapLotJHbxKRXoR-287">
          <mxGeometry relative="1" as="geometry">
            <mxPoint x="1168" y="576" as="sourcePoint" />
            <mxPoint x="1278" y="370" as="targetPoint" />
          </mxGeometry>
        </mxCell>
        <mxCell id="AOSNNNapLotJHbxKRXoR-309" style="edgeStyle=orthogonalEdgeStyle;rounded=0;orthogonalLoop=1;jettySize=auto;html=1;exitX=1;exitY=0.5;exitDx=0;exitDy=0;entryX=0;entryY=1;entryDx=0;entryDy=0;fontColor=#9AC7BF;" edge="1" parent="1" source="AOSNNNapLotJHbxKRXoR-290" target="AOSNNNapLotJHbxKRXoR-245">
          <mxGeometry relative="1" as="geometry" />
        </mxCell>
        <mxCell id="AOSNNNapLotJHbxKRXoR-290" value="clustering_solutions.csv" style="ellipse;whiteSpace=wrap;html=1;aspect=fixed;fontSize=10;labelPosition=center;verticalLabelPosition=top;align=center;verticalAlign=bottom;fillColor=#9AC7BF;strokeColor=#67AB9F;fontColor=#9AC7BF;" vertex="1" parent="1">
          <mxGeometry x="1158" y="510" width="20" height="20" as="geometry" />
        </mxCell>
        <mxCell id="AOSNNNapLotJHbxKRXoR-294" value="" style="edgeStyle=orthogonalEdgeStyle;rounded=0;orthogonalLoop=1;jettySize=auto;html=1;exitX=0.5;exitY=0;exitDx=0;exitDy=0;entryX=0;entryY=0.5;entryDx=0;entryDy=0;endArrow=none;" edge="1" parent="1" source="AOSNNNapLotJHbxKRXoR-244" target="AOSNNNapLotJHbxKRXoR-290">
          <mxGeometry relative="1" as="geometry">
            <mxPoint x="1168" y="576" as="sourcePoint" />
            <mxPoint x="1158" y="446" as="targetPoint" />
          </mxGeometry>
        </mxCell>
        <mxCell id="AOSNNNapLotJHbxKRXoR-297" value="summary_QC.xlsxl" style="ellipse;whiteSpace=wrap;html=1;aspect=fixed;fontSize=10;labelPosition=center;verticalLabelPosition=top;align=center;verticalAlign=bottom;fillColor=#9AC7BF;strokeColor=#67AB9F;fontColor=#9AC7BF;" vertex="1" parent="1">
          <mxGeometry x="1256" y="285" width="20" height="20" as="geometry" />
        </mxCell>
        <mxCell id="AOSNNNapLotJHbxKRXoR-298" value="bad_boys.xlsxl" style="ellipse;whiteSpace=wrap;html=1;aspect=fixed;fontSize=10;labelPosition=center;verticalLabelPosition=top;align=center;verticalAlign=bottom;fillColor=#9AC7BF;strokeColor=#67AB9F;fontColor=#9AC7BF;" vertex="1" parent="1">
          <mxGeometry x="1258" y="195" width="20" height="20" as="geometry" />
        </mxCell>
        <mxCell id="AOSNNNapLotJHbxKRXoR-301" value="QC_chosen.pdf" style="ellipse;whiteSpace=wrap;html=1;aspect=fixed;fontSize=10;labelPosition=center;verticalLabelPosition=top;align=center;verticalAlign=bottom;fillColor=#9AC7BF;strokeColor=#67AB9F;fontColor=#9AC7BF;" vertex="1" parent="1">
          <mxGeometry x="1520" y="290" width="20" height="20" as="geometry" />
        </mxCell>
        <mxCell id="AOSNNNapLotJHbxKRXoR-302" value="ARI_among_solutions.pdf" style="ellipse;whiteSpace=wrap;html=1;aspect=fixed;fontSize=10;labelPosition=center;verticalLabelPosition=top;align=center;verticalAlign=bottom;fillColor=#9AC7BF;strokeColor=#67AB9F;fontColor=#9AC7BF;" vertex="1" parent="1">
          <mxGeometry x="1520" y="240" width="20" height="20" as="geometry" />
        </mxCell>
        <mxCell id="AOSNNNapLotJHbxKRXoR-304" value="clustering_solutions_ranking.pdf" style="ellipse;whiteSpace=wrap;html=1;aspect=fixed;fontSize=10;labelPosition=center;verticalLabelPosition=top;align=center;verticalAlign=bottom;fillColor=#9AC7BF;strokeColor=#67AB9F;fontColor=#9AC7BF;" vertex="1" parent="1">
          <mxGeometry x="1410" y="220" width="20" height="20" as="geometry" />
        </mxCell>
        <mxCell id="AOSNNNapLotJHbxKRXoR-305" value="clusters_separation.pdf" style="ellipse;whiteSpace=wrap;html=1;aspect=fixed;fontSize=10;labelPosition=center;verticalLabelPosition=top;align=center;verticalAlign=bottom;fillColor=#9AC7BF;strokeColor=#67AB9F;fontColor=#9AC7BF;" vertex="1" parent="1">
          <mxGeometry x="1468" y="170" width="20" height="20" as="geometry" />
        </mxCell>
        <mxCell id="AOSNNNapLotJHbxKRXoR-306" value="chosen_solution_relationship.pdf" style="ellipse;whiteSpace=wrap;html=1;aspect=fixed;fontSize=10;labelPosition=center;verticalLabelPosition=top;align=center;verticalAlign=bottom;fillColor=#9AC7BF;strokeColor=#67AB9F;fontColor=#9AC7BF;" vertex="1" parent="1">
          <mxGeometry x="1410" y="270" width="20" height="20" as="geometry" />
        </mxCell>
        <mxCell id="AOSNNNapLotJHbxKRXoR-315" style="edgeStyle=orthogonalEdgeStyle;rounded=0;orthogonalLoop=1;jettySize=auto;html=1;exitX=0.5;exitY=1;exitDx=0;exitDy=0;entryX=1;entryY=0.639;entryDx=0;entryDy=0;entryPerimeter=0;fontColor=#9AC7BF;" edge="1" parent="1" source="AOSNNNapLotJHbxKRXoR-311" target="AOSNNNapLotJHbxKRXoR-263">
          <mxGeometry relative="1" as="geometry" />
        </mxCell>
        <mxCell id="AOSNNNapLotJHbxKRXoR-311" value="clustered.h5ad" style="ellipse;whiteSpace=wrap;html=1;aspect=fixed;fontSize=10;labelPosition=center;verticalLabelPosition=top;align=center;verticalAlign=bottom;fillColor=#9AC7BF;strokeColor=#67AB9F;fontColor=#9AC7BF;" vertex="1" parent="1">
          <mxGeometry x="1500" y="472" width="20" height="20" as="geometry" />
        </mxCell>
        <mxCell id="AOSNNNapLotJHbxKRXoR-312" value="signatures.txt" style="ellipse;whiteSpace=wrap;html=1;aspect=fixed;fontSize=10;labelPosition=center;verticalLabelPosition=top;align=center;verticalAlign=bottom;fillColor=#9AC7BF;strokeColor=#67AB9F;fontColor=#9AC7BF;" vertex="1" parent="1">
          <mxGeometry x="1373" y="553" width="20" height="20" as="geometry" />
        </mxCell>
        <mxCell id="AOSNNNapLotJHbxKRXoR-317" value="Results_app.txt" style="ellipse;whiteSpace=wrap;html=1;aspect=fixed;fontSize=10;labelPosition=center;verticalLabelPosition=top;align=center;verticalAlign=bottom;fillColor=#9AC7BF;strokeColor=#67AB9F;fontColor=#9AC7BF;" vertex="1" parent="1">
          <mxGeometry x="1372.5" y="680" width="20" height="20" as="geometry" />
        </mxCell>
        <mxCell id="AOSNNNapLotJHbxKRXoR-318" value="" style="edgeStyle=orthogonalEdgeStyle;rounded=0;orthogonalLoop=1;jettySize=auto;html=1;exitX=0.5;exitY=1;exitDx=0;exitDy=0;endArrow=none;" edge="1" parent="1" source="AOSNNNapLotJHbxKRXoR-263" target="AOSNNNapLotJHbxKRXoR-317">
          <mxGeometry relative="1" as="geometry">
            <mxPoint x="1383" y="653" as="sourcePoint" />
            <mxPoint x="1382.5" y="770" as="targetPoint" />
          </mxGeometry>
        </mxCell>
        <mxCell id="AOSNNNapLotJHbxKRXoR-320" value="integration_diagnostics.pdf" style="ellipse;whiteSpace=wrap;html=1;aspect=fixed;fontSize=10;labelPosition=center;verticalLabelPosition=top;align=center;verticalAlign=bottom;fillColor=#ffe6cc;strokeColor=#d79b00;fontColor=#FFB570;" vertex="1" parent="1">
          <mxGeometry x="970" y="680" width="20" height="20" as="geometry" />
        </mxCell>
      </root>
    </mxGraphModel>
  </diagram>
</mxfile>
